<svg width="42" height="42" viewBox="0 0 36 42" fill="none" xmlns="http://www.w3.org/2000/svg">
<path fill-rule="evenodd" clip-rule="evenodd" d="M4.1768 37.7102C7.02762 40.5701 10.9724 42 16.011 42C22.1105 42 27.3812 39.8717 31.8232 35.6152C34.3425 33.2209 35.6022 31.2922 35.6022 29.829C35.6022 29.1639 35.3702 28.6318 34.9061 28.2328C34.5083 27.7672 33.9779 27.5344 33.3149 27.5344C32.5193 27.5344 31.6575 27.9335 30.7293 28.7316C29.2707 29.9287 27.5138 30.8931 25.4586 31.6247C23.4696 32.2898 21.5138 32.6223 19.5912 32.6223C16.4088 32.6223 13.7901 31.6912 11.7348 29.829C9.74586 27.9667 8.71823 25.5059 8.65193 22.4466C11.1713 24.2423 14.4199 25.1401 18.3978 25.1401C21.6464 25.1401 24.5967 24.5083 27.2486 23.2447C29.9006 21.9145 32.0221 20.152 33.6133 17.9572C35.2044 15.7625 36 13.3682 36 10.7743C36 7.51544 34.8066 4.92162 32.4199 2.99287C30.0331 0.997625 26.8508 0 22.8729 0C18.6961 0 14.8508 1.1639 11.337 3.49169C7.8895 5.75297 5.13812 8.81235 3.08287 12.6698C1.02762 16.5273 0 20.8171 0 25.5392C0 30.7268 1.39227 34.7839 4.1768 37.7102ZM23.4696 17.0594C21.8785 18.057 19.8895 18.5558 17.5028 18.5558C16.0442 18.5558 14.5856 18.3896 13.1271 18.057C11.6685 17.7245 10.4751 17.2589 9.54696 16.6603C10.3425 14.3325 11.6354 12.5368 13.4254 11.2732C15.2818 9.94299 17.4365 9.27791 19.8895 9.27791C21.7459 9.27791 23.2044 9.64371 24.2652 10.3753C25.326 11.0404 25.8564 12.0048 25.8564 13.2684C25.8564 14.7981 25.0608 16.0618 23.4696 17.0594ZM27 5.76C26.3333 6.24 26 7.09333 26 8.32C26 9.49333 26.3333 10.3467 27 10.88C27.6667 11.3867 28.48 11.64 29.44 11.64C30.3733 11.64 31.1733 11.3867 31.84 10.88C32.5067 10.3467 32.84 9.49333 32.84 8.32C32.84 7.09333 32.5067 6.24 31.84 5.76C31.1733 5.25333 30.3733 5 29.44 5C28.48 5 27.6667 5.25333 27 5.76Z" fill="#C9F0E9"/>
</svg>
